<svg xmlns="http://www.w3.org/2000/svg" width="100" height="25" viewBox="0 0 100 25">
  <metadata><?xpacket begin="﻿" id="W5M0MpCehiHzreSzNTczkc9d"?>
<x:xmpmeta xmlns:x="adobe:ns:meta/" x:xmptk="Adobe XMP Core 5.6-c138 79.159824, 2016/09/14-01:09:01        ">
   <rdf:RDF xmlns:rdf="http://www.w3.org/1999/02/22-rdf-syntax-ns#">
      <rdf:Description rdf:about=""/>
   </rdf:RDF>
</x:xmpmeta>
                                                                                                    
                                                                                                    
                                                                                                    
                                                                                                    
                                                                                                    
                                                                                                    
                                                                                                    
                                                                                                    
                                                                                                    
                                                                                                    
                                                                                                    
                                                                                                    
                                                                                                    
                                                                                                    
                                                                                                    
                                                                                                    
                                                                                                    
                                                                                                    
                                                                                                    
                                                                                                    
                           
<?xpacket end="w"?></metadata>
<defs>
    <style>
      .cls-1 {
        fill: #ff6400;
        fill-rule: evenodd;
      }
    </style>
  </defs>
  <path id="FlixList" class="cls-1" d="M9.36,22.584h1.352V13.219H20.5V10.755H10.712V4.47H21.9V2.006H7.995V22.584H9.36Zm15.184,0H27V2.006H24.544V22.584h0Zm6.24,0h2.458V7.606H30.784V22.584h0ZM30.757,4.862H33.27V2.006H30.757V4.862Zm4.656,17.722h3.1l3.585-5.71,3.642,5.71h3.068L43.729,14.9l4.916-7.293H45.607l-3.379,5.333L38.863,7.606H35.687L40.6,14.857l-5.189,7.727h0Zm28.689,0V20.12H53.929V2.006H51.212V22.584H64.1Zm2.431,0h2.458V7.606H66.533V22.584h0ZM66.505,4.862h2.513V2.006H66.505V4.862Zm16.833,7.083a4.629,4.629,0,0,0-1.6-3.514,6.09,6.09,0,0,0-4.061-1.274A5.971,5.971,0,0,0,73.694,8.4a4.159,4.159,0,0,0-1.468,3.353,3.451,3.451,0,0,0,.876,2.52,6.024,6.024,0,0,0,2.936,1.414l2.54,0.616a7.155,7.155,0,0,1,2.253.812,1.378,1.378,0,0,1,.559,1.19,2.2,2.2,0,0,1-.854,1.876,4.121,4.121,0,0,1-2.507.644,4.586,4.586,0,0,1-2.821-.714,3.218,3.218,0,0,1-1.1-2.31H71.748a5.265,5.265,0,0,0,1.68,3.941,7.116,7.116,0,0,0,4.6,1.253,6.4,6.4,0,0,0,4.226-1.3A4.35,4.35,0,0,0,83.82,18.16a3.545,3.545,0,0,0-.9-2.59,6.4,6.4,0,0,0-3.046-1.47l-2.54-.616a7.1,7.1,0,0,1-2.226-.812,1.391,1.391,0,0,1-.56-1.2,1.81,1.81,0,0,1,.8-1.6,4.126,4.126,0,0,1,2.329-.546,3.759,3.759,0,0,1,2.37.686,2.617,2.617,0,0,1,.99,1.932h2.308Zm8.674,8.679H91.139a1.692,1.692,0,0,1-1.045-.294,0.947,0.947,0,0,1-.389-0.8V9.663h2.308V7.606H89.7v-4.2H87.247v4.2H85.226V9.663h2.021v9.869a3.716,3.716,0,0,0,.662,2.506,2.968,2.968,0,0,0,2.273.728,13.389,13.389,0,0,0,1.83-.2h0V20.624Z"/>
  <path id="Polygon_1" data-name="Polygon 1" class="cls-1" d="M34.992,3.513l-5,3.5V0.009Z"/>
  <path id="Polygon_1_copy" data-name="Polygon 1 copy" class="cls-1" d="M70.992,3.513l-5,3.5V0.009Z"/>
</svg>
